<svg width="124" height="71" viewBox="0 0 124 71" fill="none" xmlns="http://www.w3.org/2000/svg">
<path d="M47.6957 38.5818C42.9233 43.3888 34.8408 43.3696 32.5836 36.9631C32.1416 35.7088 31.7883 34.4191 31.5284 33.1031C30.4673 27.7299 31.0119 22.1606 33.0933 17.0991C35.1747 12.0378 38.6995 7.71179 43.2218 4.66816C47.7442 1.62453 53.0611 -2.34673e-07 58.5001 0C63.939 2.34673e-07 69.2559 1.62453 73.7782 4.66816C78.3006 7.71179 81.8253 12.0378 83.9067 17.0993C85.9881 22.1606 86.5326 27.7299 85.4716 33.1031C85.2118 34.4191 84.8584 35.7088 84.4164 36.9631C82.1591 43.3696 74.0767 43.3888 69.3043 38.5818L61.9375 31.1616C61.2337 30.4527 61.3064 29.2836 61.5006 28.3004C61.6185 27.7027 61.5579 27.0831 61.3264 26.52C61.0948 25.9569 60.7028 25.4756 60.1997 25.1371C59.6966 24.7986 59.1051 24.6178 58.5001 24.6178C57.895 24.6178 57.3035 24.7986 56.8004 25.1371C56.2972 25.4756 55.9052 25.9569 55.6736 26.52C55.442 27.0831 55.3814 27.7027 55.4995 28.3004C55.6937 29.2836 55.7663 30.4527 55.0625 31.1616L47.6957 38.5818Z" fill="url(#paint0_linear_12_3)"/>
<path d="M3.89625 61.8034H9V65H0V48H3.89625V61.8034Z" fill="white"/>
<path d="M16.4552 65C15.2299 65 14.1241 64.7155 13.1379 64.1464C12.1667 63.5773 11.3971 62.7643 10.8293 61.7073C10.2765 60.6504 10 59.4146 10 57.9999C10 56.6017 10.2838 55.3739 10.8517 54.317C11.4196 53.2439 12.1966 52.4227 13.1827 51.8536C14.169 51.2845 15.2747 51 16.5 51C17.7253 51 18.831 51.2845 19.8172 51.8536C20.8034 52.4227 21.5804 53.2439 22.1482 54.317C22.716 55.3739 23 56.6017 23 57.9999C23 59.3983 22.7086 60.6341 22.1259 61.7073C21.5581 62.7643 20.7736 63.5773 19.7724 64.1464C18.7862 64.7155 17.6804 65 16.4552 65ZM16.4552 61.3902C17.1873 61.3902 17.8074 61.0976 18.3156 60.5122C18.8385 59.9268 19.1 59.0895 19.1 57.9999C19.1 56.9105 18.8459 56.0732 18.3379 55.4878C17.8448 54.9024 17.2322 54.6097 16.5 54.6097C15.7529 54.6097 15.1327 54.9024 14.6396 55.4878C14.1465 56.0569 13.9 56.8942 13.9 57.9999C13.9 59.0895 14.1391 59.9268 14.6173 60.5122C15.1104 61.0976 15.723 61.3902 16.4552 61.3902Z" fill="white"/>
<path d="M29.4295 51C30.2977 51 31.0555 51.1903 31.7029 51.5708C32.365 51.9512 32.8727 52.4507 33.2259 53.0689V51.1903H37V64.4363C37 65.6571 36.772 66.759 36.3158 67.7419C35.8744 68.7407 35.1902 69.5334 34.2632 70.12C33.3509 70.7067 32.2105 71 30.8422 71C29.0176 71 27.5388 70.5323 26.4057 69.5969C25.2728 68.6773 24.6253 67.4248 24.4635 65.8394H28.1936C28.3112 66.3467 28.5909 66.7431 29.0323 67.0285C29.4737 67.3297 30.0181 67.4803 30.6656 67.4803C31.4454 67.4803 32.0634 67.2346 32.5196 66.7431C32.9904 66.2675 33.2259 65.4986 33.2259 64.4363V62.5577C32.858 63.1759 32.3503 63.6833 31.7029 64.0796C31.0555 64.4601 30.2977 64.6504 29.4295 64.6504C28.4143 64.6504 27.4946 64.373 26.6706 63.8181C25.8466 63.2473 25.1918 62.4466 24.7063 61.4161C24.2355 60.3698 24 59.1649 24 57.8014C24 56.4379 24.2355 55.241 24.7063 54.2104C25.1918 53.1799 25.8466 52.3872 26.6706 51.8323C27.4946 51.2774 28.4143 51 29.4295 51ZM33.2259 57.8251C33.2259 56.8105 32.961 56.0098 32.4313 55.4233C31.9163 54.8367 31.2835 54.5434 30.5331 54.5434C29.7827 54.5434 29.1426 54.8367 28.6129 55.4233C28.0979 55.9941 27.8404 56.7868 27.8404 57.8014C27.8404 58.8161 28.0979 59.6247 28.6129 60.2271C29.1426 60.8137 29.7827 61.107 30.5331 61.107C31.2835 61.107 31.9163 60.8137 32.4313 60.2271C32.961 59.6404 33.2259 58.8399 33.2259 57.8251Z" fill="white"/>
<path d="M45.4552 65C44.2299 65 43.1241 64.7155 42.138 64.1464C41.1667 63.5773 40.3971 62.7643 39.8293 61.7073C39.2765 60.6504 39 59.4146 39 57.9999C39 56.6017 39.2838 55.3739 39.8518 54.317C40.4196 53.2439 41.1966 52.4227 42.1827 51.8536C43.169 51.2845 44.2747 51 45.5 51C46.7253 51 47.831 51.2845 48.8172 51.8536C49.8035 52.4227 50.5804 53.2439 51.1482 54.317C51.716 55.3739 52 56.6017 52 57.9999C52 59.3983 51.7087 60.6341 51.1259 61.7073C50.5581 62.7643 49.7736 63.5773 48.7724 64.1464C47.7862 64.7155 46.6804 65 45.4552 65ZM45.4552 61.3902C46.1873 61.3902 46.8075 61.0976 47.3156 60.5122C47.8385 59.9268 48.1 59.0895 48.1 57.9999C48.1 56.9105 47.8459 56.0732 47.3379 55.4878C46.8448 54.9024 46.2322 54.6097 45.5 54.6097C44.7529 54.6097 44.1327 54.9024 43.6396 55.4878C43.1466 56.0569 42.9 56.8942 42.9 57.9999C42.9 59.0895 43.1391 59.9268 43.6173 60.5122C44.1104 61.0976 44.723 61.3902 45.4552 61.3902Z" fill="white"/>
<path d="M55.5123 50.3883C54.7734 50.3883 54.1659 50.1827 53.6897 49.7715C53.2299 49.3446 53 48.8227 53 48.206C53 47.5735 53.2299 47.0516 53.6897 46.6404C54.1659 46.2135 54.7734 46 55.5123 46C56.2348 46 56.826 46.2135 57.2857 46.6404C57.7619 47.0516 58 47.5735 58 48.206C58 48.8227 57.7619 49.3446 57.2857 49.7715C56.826 50.1827 56.2348 50.3883 55.5123 50.3883ZM57.6059 51.7641V65H53.3941V51.7641H57.6059Z" fill="white"/>
<path d="M64.064 53.0913C64.46 52.4664 65.0068 51.9615 65.7043 51.577C66.4019 51.1923 67.218 51 68.1526 51C69.2461 51 70.236 51.2804 71.1235 51.8413C72.011 52.4022 72.7085 53.2035 73.215 54.2452C73.7376 55.2869 74 56.4968 74 57.875C74 59.2533 73.7376 60.4712 73.215 61.5288C72.7085 62.5705 72.011 63.3798 71.1235 63.9568C70.236 64.5177 69.2461 64.7981 68.1526 64.7981C67.2329 64.7981 66.418 64.6058 65.7043 64.2211C65.0068 63.8365 64.46 63.3398 64.064 62.7308V71H60V51.1923H64.064V53.0913ZM69.8642 57.875C69.8642 56.8494 69.5788 56.0481 69.0078 55.4712C68.453 54.8783 67.7647 54.5817 66.9405 54.5817C66.1325 54.5817 65.443 54.8783 64.8721 55.4712C64.3184 56.0641 64.041 56.8734 64.041 57.899C64.041 58.9247 64.3184 59.7339 64.8721 60.3269C65.443 60.9198 66.1325 61.2164 66.9405 61.2164C67.7486 61.2164 68.4381 60.9198 69.0078 60.3269C69.5788 59.718 69.8642 58.9006 69.8642 57.875Z" fill="white"/>
<path d="M79.8529 65C78.7445 65 77.7575 64.7967 76.8917 64.3903C76.0271 63.9837 75.3433 63.4309 74.8426 62.7317C74.3419 62.0162 74.0607 61.2195 74 60.3414H77.849C77.8942 60.8129 78.0994 61.195 78.4633 61.4877C78.8284 61.7804 79.2761 61.9268 79.8077 61.9268C80.293 61.9268 80.6646 61.8292 80.9227 61.6341C81.1962 61.4228 81.333 61.1544 81.333 60.8292C81.333 60.439 81.1433 60.1544 80.7639 59.9756C80.3845 59.7805 79.7691 59.5691 78.9188 59.3414C78.0078 59.1138 77.249 58.878 76.6414 58.6341C76.0348 58.374 75.5109 57.9756 75.0709 57.439C74.6297 56.8862 74.4103 56.1463 74.4103 55.2195C74.4103 54.439 74.6077 53.7317 75.0025 53.0975C75.4117 52.4472 76.0039 51.9349 76.7781 51.5609C77.5678 51.187 78.5019 51 79.5794 51C81.173 51 82.4259 51.4227 83.3369 52.2682C84.2633 53.1138 84.7949 54.2357 84.9316 55.6341H81.333C81.2723 55.1626 81.0749 54.7887 80.7407 54.5121C80.422 54.2357 79.9974 54.0975 79.4658 54.0975C79.0103 54.0975 78.6607 54.1951 78.4181 54.3902C78.1755 54.5691 78.0541 54.8211 78.0541 55.1463C78.0541 55.5366 78.2438 55.8293 78.6232 56.0244C79.018 56.2195 79.6246 56.4147 80.4452 56.6097C81.3859 56.8699 82.1524 57.1301 82.7446 57.3902C83.3369 57.6341 83.853 58.0406 84.2931 58.6098C84.7485 59.1626 84.9846 59.9105 85 60.8537C85 61.6504 84.7871 62.3658 84.3614 63C83.9523 63.6179 83.3523 64.1057 82.5627 64.4634C81.7885 64.8212 80.8852 65 79.8529 65Z" fill="white"/>
<path d="M100 52V64.8617H96.0018V63.1099C95.5965 63.6785 95.0428 64.1395 94.3419 64.4929C93.6557 64.831 92.8925 65 92.0501 65C91.0525 65 90.1716 64.7849 89.4084 64.3546C88.6441 63.909 88.0519 63.2712 87.6318 62.4415C87.2106 61.6117 87 60.636 87 59.5141V52H90.9744V58.984C90.9744 59.8445 91.2009 60.513 91.6526 60.9894C92.1044 61.4657 92.7125 61.7039 93.4768 61.7039C94.2558 61.7039 94.8718 61.4657 95.3236 60.9894C95.7754 60.513 96.0018 59.8445 96.0018 58.984V52H100Z" fill="white"/>
<path d="M118.682 52C120.306 52 121.595 52.484 122.548 53.4521C123.516 54.4202 124 55.7647 124 57.4858V65H120.017V58.016C120.017 57.1862 119.79 56.5484 119.338 56.1028C118.9 55.6418 118.292 55.4113 117.51 55.4113C116.729 55.4113 116.112 55.6418 115.659 56.1028C115.222 56.5484 115.003 57.1862 115.003 58.016V65H111.019V58.016C111.019 57.1862 110.794 56.5484 110.341 56.1028C109.903 55.6418 109.294 55.4113 108.513 55.4113C107.732 55.4113 107.115 55.6418 106.662 56.1028C106.224 56.5484 106.007 57.1862 106.007 58.016V65H102V52.1383H106.007V53.7518C106.413 53.2139 106.944 52.7913 107.6 52.484C108.255 52.1613 108.997 52 109.825 52C110.81 52 111.684 52.2074 112.449 52.6223C113.23 53.0372 113.839 53.6289 114.277 54.3972C114.73 53.6902 115.347 53.114 116.128 52.6684C116.908 52.2228 117.76 52 118.682 52Z" fill="white"/>
<defs>
<linearGradient id="paint0_linear_12_3" x1="83.4968" y1="13.8496" x2="34.6843" y2="13.8496" gradientUnits="userSpaceOnUse">
<stop stop-color="#64C2DB"/>
<stop offset="0.510417" stop-color="#7476ED"/>
<stop offset="1" stop-color="#E56F8C"/>
</linearGradient>
</defs>
</svg>
